Coordinates
version=1
nRows=17
nColumns=40
inDegrees=yes

Units are S.I. units (second, meters, Newtons, ...)
Angles are in degrees.

endheader
time	pelvis_tilt	pelvis_list	pelvis_rotation	pelvis_tx	pelvis_ty	pelvis_tz	hip_flexion_r	hip_adduction_r	hip_rotation_r	knee_angle_r	knee_angle_r_beta	ankle_angle_r	subtalar_angle_r	mtp_angle_r	hip_flexion_l	hip_adduction_l	hip_rotation_l	knee_angle_l	knee_angle_l_beta	ankle_angle_l	subtalar_angle_l	mtp_angle_l	lumbar_extension	lumbar_bending	lumbar_rotation	arm_flex_r	arm_add_r	arm_rot_r	elbow_flex_r	pro_sup_r	wrist_flex_r	wrist_dev_r	arm_flex_l	arm_add_l	arm_rot_l	elbow_flex_l	pro_sup_l	wrist_flex_l	wrist_dev_l
     51.78750000	     -4.60865746	     -4.37132313	     -2.84496005	      0.81705161	      0.92297609	      0.49328375	     21.33085950	      2.40312005	    -12.25909859	     18.36800373	     18.36800373	      3.88674620	     -2.48660145	     -6.85316922	      8.86915986	     -8.84467764	     -4.62460664	     39.27639443	     39.27639443	     14.86662364	    -16.45240535	     -2.82854484	     -9.39228733	      8.17861014	      1.13321052	     -1.91683885	    -11.42700644	     -8.23751810	     28.77573926	     46.25481078	      0.00000000	      0.00000000	     17.70019554	    -15.16780244	    -15.82664567	     67.59017320	     47.55831661	      0.00000000	      0.00000000
     51.80085714	     -4.51642287	     -4.59261822	     -2.46241684	      0.81659823	      0.92361356	      0.49566897	     20.61887661	      2.68683091	    -12.74923033	     18.10421464	     18.10421464	      4.23533940	     -2.18276228	     -7.13780218	     10.74128169	     -9.45581243	     -3.88351214	     43.13881781	     43.13881781	     13.36363228	    -17.30845848	     -2.77792655	     -9.48772475	      8.41067695	      1.23063973	     -0.15380396	    -11.65655138	     -8.22841604	     29.53197224	     46.23761188	      0.00000000	      0.00000000	     16.89756619	    -14.41318947	    -15.45232333	     66.53142956	     47.50816421	      0.00000000	      0.00000000
     51.81421429	     -4.47381772	     -4.67761572	     -2.10077481	      0.81599887	      0.92414144	      0.49779587	     19.95505559	      2.75905322	    -13.53284418	     17.79901011	     17.79901011	      4.35190939	     -1.37002524	     -8.17669366	     12.81183793	     -9.78724329	     -3.02107434	     47.11927542	     47.11927542	     12.97281429	    -17.65423672	      0.42988691	     -9.42147955	      8.56314907	      1.58251993	      1.31671455	    -12.01743145	     -7.88809973	     30.60252495	     46.17935294	      0.00000000	      0.00000000	     16.82109745	    -13.60456647	    -14.65332213	     63.37796731	     47.40324536	      0.00000000	      0.00000000
     51.82757143	     -4.34479910	     -4.85668288	     -1.78013353	      0.81531470	      0.92471923	      0.50004383	     19.25270593	      2.97845258	    -14.14337540	     17.60167890	     17.60167890	      4.68238710	     -0.78013925	     -8.36806373	     14.70371496	    -10.26298458	     -2.33770418	     50.69004445	     50.69004445	     12.12703033	    -17.97680240	      2.31615430	     -9.54143044	      8.74656702	      1.55746917	      3.25380522	    -12.28321606	     -7.87595903	     31.66902196	     46.14861481	      0.00000000	      0.00000000	     15.86594669	    -13.13194887	    -14.06689353	     61.89473025	     47.33014097	      0.00000000	      0.00000000
     51.84092857	     -4.27364874	     -4.98451276	     -1.52373441	      0.81444233	      0.92518004	      0.50213105	     18.65773887	      3.12950581	    -14.75897242	     17.46365784	     17.46365784	      5.07288391	      0.00709136	     -8.37208365	     16.71065361	    -10.58681335	     -1.63807394	     54.10290202	     54.10290202	     12.28680769	    -18.01659264	      6.53277532	     -9.60720357	      8.87190619	      2.11377621	      4.92761116	    -12.73441008	     -7.70076010	     32.43294892	     46.11550267	      0.00000000	      0.00000000	     15.41569825	    -12.28623633	    -13.25573794	     59.86569011	     47.23514085	      0.00000000	      0.00000000
     51.85428571	     -4.19652935	     -5.14273703	     -1.30021793	      0.81353486	      0.92566119	      0.50429713	     18.01611195	      3.37987691	    -15.19560090	     17.21850621	     17.21850621	      5.33811187	      0.46089403	     -8.39542152	     18.49360185	    -11.05737208	     -1.22244426	     56.76118782	     56.76118782	     11.34076121	    -18.26459107	      7.22312118	     -9.69210298	      9.00178299	      2.23392474	      6.94893051	    -13.02275011	     -7.74853586	     33.28838979	     46.09888376	      0.00000000	      0.00000000	     14.28877147	    -11.70118659	    -12.85394123	     58.67510588	     47.17694440	      0.00000000	      0.00000000
     51.86764286	     -4.10568231	     -5.23074830	     -1.09154761	      0.81256550	      0.92628423	      0.50628053	     17.37340807	      3.52049655	    -15.72325369	     17.00595865	     17.00595865	      5.65430981	      1.20897830	     -8.36137077	     20.15867618	    -11.39069428	     -0.85835984	     58.89772641	     58.89772641	     10.94110773	    -18.42143127	      8.76106971	     -9.78050355	      9.05725182	      2.28845386	      9.16292667	    -13.28892341	     -7.71487458	     34.07015702	     46.08081706	      0.00000000	      0.00000000	     13.29349183	    -11.19817770	    -12.32797135	     56.77576838	     47.09976860	      0.00000000	      0.00000000
     51.88100000	     -4.02012007	     -5.33099446	     -0.88641485	      0.81147081	      0.92690314	      0.50814045	     16.75620427	      3.68282944	    -16.18710839	     16.80342528	     16.80342528	      5.92006479	      1.84388407	     -8.20292478	     21.76756163	    -11.71201629	     -0.53037290	     60.53925180	     60.53925180	     10.82767653	    -18.50970114	     10.24513344	     -9.87604306	      9.12223643	      2.44477621	     11.24495925	    -13.58622538	     -7.65765504	     34.71091949	     46.06581956	      0.00000000	      0.00000000	     12.32612527	    -10.68119895	    -11.79313905	     54.80365517	     47.01894426	      0.00000000	      0.00000000
     51.89435714	     -3.90484862	     -5.25895712	     -0.75254138	      0.81039609	      0.92770550	      0.50983686	     16.15144532	      3.65530053	    -16.53515631	     16.71688113	     16.71688113	      6.48976309	      2.58308232	     -7.73831580	     23.18327132	    -11.82341391	     -0.38499233	     61.58228439	     61.58228439	     11.40452758	    -18.48138997	     12.96019306	     -9.96954308	      8.99753799	      2.99183151	     13.33409101	    -14.07212942	     -7.44810545	     34.90884650	     46.05639919	      0.00000000	      0.00000000	     11.88362729	     -9.99406106	    -10.95445591	     51.89850255	     46.90293025	      0.00000000	      0.00000000
     51.90771429	     -3.82069339	     -5.14767773	     -0.65605650	      0.80921389	      0.92847962	      0.51148786	     15.57347545	      3.65796474	    -16.53764000	     16.54497361	     16.54497361	      6.73766241	      2.69149881	     -7.74766880	     24.40388864	    -11.96247416	     -0.45978357	     61.83221195	     61.83221195	     11.23768200	    -18.59355134	     13.00994946	    -10.13784301	      8.75869933	      3.56341463	     15.21732672	    -14.56418015	     -7.53486779	     35.63162216	     46.04714804	      0.00000000	      0.00000000	     10.68819074	     -9.19129211	    -10.68315812	     51.20757407	     46.85813923	      0.00000000	      0.00000000
     51.92107143	     -3.77117585	     -5.16285277	     -0.40971036	      0.80806333	      0.92935903	      0.51284347	     14.84618556	      3.75970489	    -17.00538858	     16.04811657	     16.04811657	      7.04663395	      3.40781146	     -7.36365684	     25.59849282	    -12.12694336	     -0.36137428	     61.53761273	     61.53761273	     11.50085859	    -18.57340104	     13.84113475	    -10.10343560	      8.80333449	      3.16239516	     17.72901092	    -14.50389722	     -7.40469421	     36.24063117	     46.02822543	      0.00000000	      0.00000000	      9.79032639	     -9.07594275	     -9.90132420	     47.72525764	     46.73579481	      0.00000000	      0.00000000
     51.93442857	     -3.71685894	     -5.08128337	     -0.22869945	      0.80686551	      0.93021299	      0.51408046	     14.15281296	      3.81007089	    -17.10233574	     15.58519250	     15.58519250	      7.25115611	      3.59727797	     -7.23145307	     26.57109062	    -12.18716942	     -0.43782994	     60.56908994	     60.56908994	     11.62726086	    -18.59582701	     13.98513383	    -10.18216740	      8.68034345	      3.06684378	     19.90036956	    -14.60483482	     -7.46985412	     37.22054803	     46.00709528	      0.00000000	      0.00000000	      8.43151573	     -8.69801309	     -9.52203646	     46.14615368	     46.66739853	      0.00000000	      0.00000000
     51.94778571	     -3.76366386	     -4.96181875	     -0.08678374	      0.80556228	      0.93081909	      0.51514366	     13.69337279	      3.78624556	    -17.13286374	     15.35073916	     15.35073916	      7.49930014	      3.64030607	     -7.23457894	     27.49691063	    -12.19213545	     -0.62114655	     59.06298322	     59.06298322	     11.79988927	    -18.56387877	     14.09155074	    -10.15216985	      8.49490357	      3.50508859	     21.76968087	    -15.10096069	     -7.56118854	     37.95331877	     45.99682576	      0.00000000	      0.00000000	      7.15723974	     -8.04423000	     -9.25978887	     45.19861770	     46.61712023	      0.00000000	      0.00000000
     51.96114286	     -3.68355967	     -4.87489275	      0.15686445	      0.80439620	      0.93169086	      0.51601197	     12.87506393	      3.81853818	    -17.38956153	     14.71246410	     14.71246410	      7.70006070	      4.10060742	     -7.06870471	     28.07940666	    -12.12751291	     -0.72776376	     56.93414586	     56.93414586	     11.91045502	    -18.57260915	     14.08080765	    -10.16181240	      8.41534792	      3.20173673	     24.08326165	    -14.99060190	     -7.40565676	     38.59440096	     45.97247236	      0.00000000	      0.00000000	      6.71138031	     -7.88145985	     -8.15345865	     40.81415994	     46.45355693	      0.00000000	      0.00000000
     51.97450000	     -3.65336522	     -4.74513675	      0.36092123	      0.80315791	      0.93235300	      0.51672793	     12.21741843	      3.80780514	    -17.41273452	     14.25805429	     14.25805429	      7.89921950	      4.11615797	     -7.01032532	     28.55459928	    -11.98796939	     -0.92299431	     54.36306710	     54.36306710	     12.04351842	    -18.53961770	     14.25780841	    -10.20479384	      8.23765167	      3.11690922	     26.04540620	    -15.04745647	     -7.49463765	     39.69166695	     45.94618960	      0.00000000	      0.00000000	      5.38223404	     -7.55557243	     -7.80470323	     39.42658927	     46.38613854	      0.00000000	      0.00000000
     51.98785714	     -3.65745104	     -4.66290031	      0.58388498	      0.80189884	      0.93282138	      0.51729162	     11.60749921	      3.83247497	    -17.48345487	     13.81711553	     13.81711553	      8.09776431	      4.17173643	     -7.00401586	     28.93125432	    -11.83514109	     -1.09566956	     51.41152157	     51.41152157	     12.12518570	    -18.46513313	     14.39984380	    -10.19062058	      8.12122937	      2.99525454	     27.98639579	    -15.08217427	     -7.55341071	     40.79015285	     45.91799493	      0.00000000	      0.00000000	      4.15192913	     -7.24374570	     -7.38250541	     37.78610301	     46.30929748	      0.00000000	      0.00000000
     52.00121429	     -3.68896405	     -4.67496668	      0.82467034	      0.80062450	      0.93303022	      0.51767676	     11.03004510	      3.93339607	    -17.68456463	     13.37764143	     13.37764143	      8.24293145	      4.33862981	     -7.21800384	     29.22596962	    -11.74540728	     -1.27217729	     48.15351016	     48.15351016	     11.84126077	    -18.32352117	     13.50926738	    -10.10646671	      8.17113289	      3.26238603	     29.54205589	    -15.48119438	     -7.59256451	     42.12958644	     45.87074950	      0.00000000	      0.00000000	      3.90192429	     -6.88305524	     -5.90102461	     34.00059378	     46.09430049	      0.00000000	      0.00000000
